<?xml version="1.0" encoding="UTF-8" standalone="no"?>
<svg
   xmlns="http://www.w3.org/2000/svg"
   version="1.0"
   width="500px"
   height="500px"
   viewBox="0 0 5120 5120"
   preserveAspectRatio="xMidYMid meet"
   id="svg3851">
  <metadata
     id="metadata3857">
  </metadata>
  <defs
     id="defs3855" />
  <g
     id="layer101"
     transform="translate(3.472599,2.7780792)"
     style="fill:#000d16;stroke:none">
    <path
       d="m 2520,4943 c -81,-32 -1998,-917 -2013,-930 -49,-44 -47,9 -47,-1463 0,-1473 -2,-1419 47,-1463 11,-10 468,-223 1014,-474 850,-391 1001,-457 1039,-457 38,1 203,73 1040,458 745,342 1002,464 1023,486 l 27,30 v 1420 1420 l -27,29 c -21,23 -283,147 -1034,491 -553,253 -1016,460 -1030,459 -13,0 -31,-3 -39,-6 z"
       id="path3786"/>
  </g>
  <g
     id="layer102"
     fill="#0d0030"
     stroke="none">
    <path
       d="M2245 4627 c-159 -74 -362 -167 -450 -207 -88 -40 -196 -90 -240 -110 -110 -52 -419 -194 -660 -302 -122 -54 -212 -101 -230 -119 l-30 -29 0 -1310 0 -1310 30 -29 c17 -17 80 -52 140 -79 61 -27 254 -116 430 -197 176 -81 417 -191 535 -245 118 -54 339 -155 490 -224 151 -69 285 -126 298 -126 22 0 132 49 827 367 138 63 358 164 490 225 132 60 310 142 395 180 171 78 186 88 206 135 21 50 21 2558 0 2608 -18 41 -44 58 -196 126 -221 99 -326 148 -455 209 -130 62 -171 81 -190 86 -5 1 -147 66 -315 144 -544 253 -739 340 -762 340 -13 0 -153 -60 -313 -133z m372 -183 c32 -15 62 -33 67 -41 7 -13 10 -13 17 -2 6 9 9 10 9 2 0 -20 -22 -27 -32 -9 -7 13 -17 15 -45 10 -33 -6 -35 -6 -24 14 9 17 9 20 -2 17 -15 -6 -20 -42 -6 -50 15 -10 10 -25 -6 -19 -8 4 -13 9 -11 13 3 4 1 13 -4 21 -7 12 -12 12 -22 2 -27 -27 -54 -13 -49 26 2 10 -4 9 -22 -2 -13 -9 -27 -13 -30 -10 -6 6 75 51 95 53 4 1 33 -11 65 -25z m-1259 -1576 l2 -238 238 0 c142 0 253 -5 277 -11 22 -6 56 -28 77 -49 l38 -38 0 -226 0 -226 -36 -39 c-52 -58 -81 -62 -494 -59 l-355 3 -3 550 c-1 303 0 556 3 563 3 9 35 12 127 10 l123 -3 3 -237z m1545 208 c65 -31 110 -84 128 -148 6 -25 9 -167 7 -396 -3 -403 -5 -412 -80 -477 -73 -62 -105 -68 -376 -73 -316 -5 -391 7 -465 77 -16 14 -39 44 -50 66 -21 39 -22 53 -25 405 -2 254 0 378 8 406 22 79 93 140 187 163 21 6 166 9 323 8 l285 -2 58 -29z m936 23 c69 -15 136 -60 161 -108 19 -38 20 -55 18 -263 l-3 -223 -225 0 -225 0 0 110 0 110 98 3 97 3 0 64 c0 53 -3 66 -19 75 -26 14 -300 13 -340 -1 -17 -6 -36 -19 -41 -29 -6 -11 -10 -136 -10 -300 l0 -281 25 -24 c24 -25 27 -25 192 -25 92 0 173 4 180 8 7 4 13 38 15 82 l3 75 125 0 125 0 0 -122 c0 -119 -1 -122 -30 -164 -65 -93 -157 -113 -484 -107 -210 4 -230 6 -279 27 -28 13 -65 38 -81 56 -54 62 -56 77 -56 495 l0 385 28 48 c32 54 58 73 131 99 43 15 88 17 298 18 138 0 269 -5 297 -11z"
       id="path3789" />
    <path
       d="M1360 2310 l0 -100 183 2 182 3 3 89 c2 65 -1 92 -10 98 -7 4 -91 8 -185 8 l-173 0 0 -100z"
       id="path3791" />
    <path
       d="M2352 2865 c-18 -8 -37 -26 -43 -41 -6 -18 -9 -127 -7 -296 4 -341 -16 -312 215 -316 182 -4 204 -1 233 28 19 19 20 35 20 301 0 164 -4 288 -10 299 -17 31 -67 40 -224 40 -107 -1 -160 -5 -184 -15z"
       id="path3793" />
  </g>
  <g
     id="layer103"
     fill="#120045"
     stroke="none">
    <path
       d="M2490 4736 c-56 -23 -232 -104 -615 -281 -115 -54 -223 -103 -240 -109 -16 -7 -43 -19 -60 -28 -16 -8 -205 -95 -420 -193 -485 -221 -481 -219 -505 -258 -20 -31 -20 -55 -18 -1329 l3 -1298 30 -28 c20 -19 254 -132 670 -322 352 -161 766 -351 921 -421 154 -71 291 -129 303 -129 12 0 342 147 734 326 392 180 804 369 916 420 112 51 215 101 228 110 55 36 53 -21 53 1354 0 1376 2 1318 -53 1355 -14 8 -123 60 -243 114 -121 54 -277 126 -347 159 -71 34 -132 62 -135 62 -3 0 -87 38 -186 84 -286 134 -835 385 -898 412 -70 29 -70 29 -138 0z m360 -397 c157 -72 355 -165 440 -206 85 -41 200 -95 255 -120 55 -25 118 -53 140 -64 22 -10 126 -56 230 -102 105 -47 216 -97 248 -112 l57 -27 0 -825 c0 -709 -2 -824 -14 -807 -9 12 -11 21 -4 25 5 4 3 9 -7 12 -9 4 -13 3 -10 -2 3 -5 -4 -12 -15 -16 -11 -3 -20 -10 -20 -15 0 -4 -8 -11 -17 -14 -15 -6 -15 -4 2 14 10 11 13 20 7 20 -7 0 -12 5 -12 11 0 8 5 7 15 -1 9 -7 18 -10 21 -7 6 6 -32 30 -53 33 -19 3 -37 -23 -22 -32 7 -4 9 -3 5 4 -3 6 -2 13 3 16 15 10 22 -11 8 -22 -30 -25 -66 -32 -82 -15 -14 14 -18 14 -35 -2 -11 -10 -17 -22 -14 -27 3 -4 2 -7 -3 -6 -4 2 -24 -7 -43 -18 -75 -46 -101 -49 -385 -49 l-270 0 -55 26 c-58 28 -89 53 -116 94 -9 14 -21 22 -26 19 -6 -4 -5 -10 3 -15 23 -15 -4 -9 -31 6 -33 19 -40 18 -40 -3 0 -10 -14 -28 -30 -41 -17 -12 -28 -27 -24 -33 4 -6 3 -8 -3 -5 -5 3 -27 -3 -49 -13 -21 -11 -63 -24 -93 -30 -72 -13 -472 -13 -546 1 -67 12 -134 43 -153 70 -14 21 -32 25 -32 8 0 -5 4 -8 8 -5 5 3 9 -1 9 -9 0 -12 -3 -12 -14 -3 -8 7 -13 22 -10 34 3 17 0 20 -15 16 -11 -3 -15 -8 -9 -11 6 -4 3 -11 -8 -18 -16 -10 -18 -8 -15 18 3 25 1 27 -10 17 -10 -10 -11 -15 -2 -20 6 -5 2 -8 -10 -8 -21 0 -40 -25 -26 -33 4 -2 2 -3 -4 -1 -7 1 -22 -8 -34 -21 -13 -14 -43 -28 -72 -34 -65 -14 -754 -15 -763 -1 -3 6 -7 28 -7 50 0 26 -4 38 -12 33 -6 -3 -6 0 1 8 13 13 19 38 7 26 -4 -3 -15 4 -26 16 -11 12 -16 15 -12 7 14 -26 14 -42 -1 -30 -7 6 -20 8 -28 4 -12 -4 -15 -1 -13 13 3 13 -2 19 -15 19 -24 0 -24 -5 0 -30 20 -21 20 -21 -25 -23 -24 -1 -44 2 -44 8 0 6 5 7 10 4 6 -3 10 -2 10 4 0 6 8 8 18 5 14 -5 14 -4 2 4 -8 6 -18 8 -24 5 -5 -4 -7 1 -3 11 6 14 3 15 -13 6 -11 -6 -20 -13 -20 -16 0 -3 5 -2 11 2 7 4 10 1 7 -6 -9 -27 -27 -20 -33 12 -3 18 -4 383 -3 811 l3 778 135 60 c74 33 164 73 200 89 270 118 397 175 410 186 8 6 87 43 175 82 88 38 225 102 305 140 200 97 423 200 435 201 5 1 138 -58 295 -130z m-1804 -2248 c-4 -5 0 -12 6 -14 8 -3 6 -6 -4 -6 -10 -1 -18 6 -18 14 0 8 5 15 11 15 5 0 8 -4 5 -9z m2989 -39 c-2 -2 -13 2 -24 10 -12 8 -18 17 -15 21 3 3 14 -2 25 -11 10 -9 17 -18 14 -20z"
       id="path3796" />
    <path
       d="M4041 2106 c-15 -17 -1 -28 19 -15 11 6 12 9 2 9 -7 0 -10 5 -7 10 9 15 -1 12 -14 -4z"
       id="path3798" />
  </g>
  <g
     id="layer104"
     fill="#fe7f07"
     stroke="none">
    <path
       d="M3257 3064 c-59 -18 -118 -75 -135 -130 -8 -29 -12 -142 -12 -381 0 -390 4 -417 69 -476 65 -58 87 -62 376 -62 250 0 262 1 310 23 96 44 125 94 133 224 l5 88 -107 0 -106 0 0 -69 c0 -105 5 -103 -226 -99 -186 3 -194 4 -216 26 -23 22 -23 25 -26 331 -3 348 -4 343 73 361 62 15 335 12 365 -3 24 -12 25 -18 28 -105 l3 -92 -101 0 -100 0 0 -85 0 -85 205 0 205 0 0 176 c0 208 -9 253 -61 305 -62 62 -103 69 -388 68 -187 0 -258 -4 -294 -15z"
       id="path3801" />
  </g>
  <g
     id="layer105"
     fill="#fe9407"
     stroke="none">
    <path
       d="M2230 3065 c-59 -19 -118 -69 -141 -119 -17 -37 -19 -72 -19 -386 0 -215 4 -360 11 -384 16 -56 80 -121 142 -143 45 -16 88 -18 322 -18 261 0 272 1 320 23 61 28 90 55 118 107 21 38 22 54 25 385 2 241 0 357 -8 385 -18 61 -57 105 -119 134 -56 26 -57 26 -331 28 -215 2 -285 -1 -320 -12z m521 -174 c15 -7 32 -24 38 -38 7 -16 11 -121 11 -309 0 -316 -3 -333 -61 -353 -19 -6 -104 -11 -203 -11 -198 0 -232 9 -253 70 -15 44 -17 529 -3 581 20 71 49 79 275 75 115 -1 179 -6 196 -15z"
       id="path3804" />
    <path
       d="M3257 3064 c-59 -18 -118 -75 -135 -130 -8 -29 -12 -142 -12 -381 0 -390 4 -417 69 -476 65 -58 87 -62 376 -62 250 0 262 1 310 23 62 28 82 47 107 97 25 49 39 215 18 215 -13 0 -62 -48 -174 -175 l-70 -77 -35 38 -36 39 -152 5 c-216 7 -197 -27 -201 359 -3 348 -4 343 73 361 62 15 335 12 365 -3 24 -12 25 -18 28 -105 l3 -92 -101 0 -100 0 0 -85 0 -84 205 -1 205 0 0 30 0 30 -70 0 c-38 0 -70 3 -70 8 0 4 32 40 70 80 l70 73 0 65 c0 140 -47 218 -151 248 -74 22 -521 22 -592 0z m517 -509 c11 -8 15 -15 9 -15 -19 0 -43 12 -43 21 0 13 12 11 34 -6z"
       id="path3806" />
    <path
       d="M3808 2343 c12 -2 30 -2 40 0 9 3 -1 5 -23 4 -22 0 -30 -2 -17 -4z"
       id="path3808" />
  </g>
  <g
     id="layer106"
     transform="matrix(0.99618316,0,0,0.99495365,7.9008521,15.542766)"
     style="fill:#fead0e;stroke:none">
    <path
       d="m 2230,3065 c -59,-19 -118,-68 -141,-119 -17,-37 -19,-72 -19,-386 0,-215 4,-360 11,-384 16,-56 80,-121 142,-143 45,-16 88,-18 322,-18 261,0 272,1 320,23 61,28 90,55 118,107 21,38 22,54 25,390 3,398 2,404 -73,474 -70,65 -108,71 -404,70 -189,0 -268,-4 -301,-14 z m 521,-174 c 15,-7 32,-24 38,-38 7,-16 11,-121 11,-309 0,-316 -3,-333 -61,-353 -19,-6 -104,-11 -203,-11 -198,0 -232,9 -253,70 -15,44 -17,529 -3,581 20,71 49,79 275,75 115,-1 179,-6 196,-15 z"
       id="path3811"/>
    <path
       d="m 3574,3055 c 5,-18 2,-27 -9,-31 -8,-4 -15,-11 -15,-18 0,-6 -14,-24 -31,-39 -17,-14 -28,-31 -25,-36 4,-5 -2,-11 -11,-14 -10,-2 41,-4 113,-4 155,-1 190.7644,-1.5775 195.7644,-51.5775 l 5.285,-39.3317 L 3896,2820 h 104 v 31 c 0,62 -23,122 -61,160 -52,52 -114,69 -257,69 h -114 z"
       id="path3813"/>
    <path
       d="m 3110,2512 c 0,-345 5,-377 69,-435 53,-48 153,-79 168,-52 5,8 38,45 73,82 l 65,68 -60,7 c -102,13 -99,6 -105,303 -5,256 -8,275 -39,218 -19,-37 -42,-27 -101,41 -30,36 -58,65 -62,65 -5,1 -8,-133 -8,-297 z"
       id="path3815"/>
    <path
       d="m 3623,2563 c -18,-2 -20.7658,-4.8592 -20.7658,-10.8592 0,-15 33.7658,-13.1408 47.7658,2.8592 7,8 34.841,19.0254 32.841,18.0254 -2,0 -42.841,-8.0254 -59.841,-10.0254 z"
       id="path3817"/>
    <path
       d="m 3793.1207,2084.4391 c -17.6798,-19.7203 -36.1282,-44.3708 -40.7403,-56.203 -8.4555,-19.7203 -7.6869,-19.7203 45.3523,-13.8042 60.7261,5.9161 122.221,36.4827 148.3563,71.9792 l 16.911,23.6645 h -57.6514 c -32.2848,0 -63.0322,1.972 -69.1816,4.9301 -5.3808,2.958 -24.5979,-10.8462 -43.0463,-30.5666 z"
       id="path3819"
       style="stroke-width:0.87059557" />
  </g>
  <g
     id="layer107"
     transform="matrix(0.99528705,0,0,0.99195558,9.7558105,24.770864)"
     style="fill:#fdca19;stroke:none">
    <path
       d="m 2230,3065 c -59,-19 -118,-68 -141,-119 -17,-37 -19,-72 -19,-386 0,-215 4,-360 11,-384 16,-56 80,-121 142,-143 45,-16 88,-18 322,-18 261,0 272,1 320,23 61,28 90,55 118,107 20,36 25.7678,61.5203 28.7678,224.5203 L 3012,2550 l -66,67 c -35,38 -83,88 -105,113 l -40,45 -1,-258 c 0,-286 -4,-306 -61,-326 -19,-6 -104,-11 -203,-11 -198,0 -232,9 -253,70 -15,45 -17,529 -2,583 17,64 40,71 230,77 l 168,5 -32,36 c -69,79 -77,90 -77,109 0,19 -7,20 -147,19 -97,0 -164,-5 -193,-14 z"
       id="path3822"/>
    <path
       d="m 3146.0468,2557.9505 -28.152,-32.0495 v -156.2414 c 0,-112.1732 3.883,-171.2645 14.5614,-208.3218 l 15.5322,-52.0804 h 115.5204 c 64.0702,0 116.4912,3.0046 116.4912,6.0093 0,4.0061 -28.152,39.0603 -63.0994,79.1222 -34.9474,40.0619 -63.0994,79.1222 -63.0994,87.1346 0,8.0124 7.7661,23.0356 17.4737,34.0526 45.6257,51.0789 50.4795,66.1021 50.4795,165.2553 0,111.1717 1.9415,109.1686 -88.3392,109.1686 -53.3918,0 -61.1578,-3.0046 -87.3684,-32.0495 z"
       id="path3824"
       style="stroke-width:0.98603338" />
    <path
       d="M 3722.7708,2046.8161 3690,2012.6669 l 42.2849,-3.1044 c 64.4846,-5.1742 77.1701,7.2437 47.5706,42.4277 L 3756.5988,2082 Z"
       id="path3826"
       style="stroke-width:1.04591334" />
  </g>
  <g
     id="layer108"
     fill="#fedd32"
     stroke="none">
    <path
       d="M1130 2545 l0 -536 368 3 c491 4 465 -11 470 275 3 165 2 186 -17 228 -17 37 -29 50 -68 67 -44 20 -68 22 -300 26 l-253 4 0 234 0 234 -100 0 -100 0 0 -535z m618 -127 c15 -15 16 -191 2 -219 -10 -18 -23 -19 -215 -19 l-205 0 0 125 0 125 203 0 c145 0 206 -3 215 -12z"
       id="path3829" />
    <path
       d="m 2230,3065 c -59,-19 -118,-68 -141,-119 -17,-37 -19,-72 -19,-386 0,-215 5.25,-360 12.25,-384 16,-56 78.75,-121 140.75,-143 45,-16 88,-18 322,-18 261,0 272,1 320,23 64.0681,29.3396 101.9871,65.2365 123.9076,118.9314 15.1644,37.1458 16.6588,81.7571 15.3424,139.8186 2,59 4.75,103.25 0.75,103.25 -4,0 -18,-12 -32,-27 -34,-40 -38,-46 -46,-65 -3,-10 -15,-18 -25,-18 -10,0 -24,-11 -30,-26 -10,-20 -17,-24 -35,-18 -18,6 -20,4 -10,-7 9,-11 4,-22 -22,-51 -19,-20 -42,-41 -52,-47 -14,-8 -14,-10 -3,-11 13,0 13,-1 0,-10 -8,-5 -87,-10 -175,-10 -88,0 -167,5 -175,10 -12,8 -10,10 9,10 13,0 22,3 18,6 -3,4 1,14 10,23 15,15 13,16 -38,22 -61,7 -73,4 -38,-10 13,-5 20,-10 14,-11 -5,-1 1,-6 15,-10 25,-8 25,-8 2,-9 -13,-1 -33,10 -45,23 -57,61 -72,82 -73,99 0,9 -1,85 -2,168 l -2,151 -54,-4 c -50,-4 -54,-3 -45,13 5,10 15,24 21,31 54,57 78,99 78,135 0,57 18,112 43,127 12,8 43,18 69,21 43,7 54,14 109,76 38,43 59,75 55,84 -7,20 -250,20 -316,0 z"
       id="path3831"/>
    <path
       d="m 3110,2324 c 0,-56 7.132,-118.6561 10.132,-135.6561 l 4.9297,-27.797 L 3176,2217 c 29,32 53,63 54,68 0,6 -27,39 -60,75 l -60,65 z"
       id="path3833"/>
    <path
       d="M2801 2373 c-1 -31 3 -43 13 -43 20 0 30 33 13 45 -7 5 -16 17 -20 25 -3 8 -6 -4 -6 -27z"
       id="path3835" />
  </g>
  <g
     id="layer109"
     fill="#b2b2b2"
     stroke="none">
    <path
       d="M2085 4550 c-236 -109 -455 -210 -485 -224 -30 -13 -154 -70 -275 -126 -121 -56 -310 -143 -420 -193 -110 -50 -210 -97 -222 -105 -56 -35 -53 31 -53 -1351 0 -1370 -2 -1318 51 -1353 14 -9 434 -203 934 -433 656 -301 920 -417 945 -417 25 0 299 121 920 407 487 223 904 415 928 426 78 38 72 -72 72 1372 l0 1294 -22 28 c-22 28 -100 68 -363 185 -71 32 -164 74 -205 93 -41 19 -129 60 -195 90 -108 49 -296 136 -475 219 -515 238 -631 288 -667 287 -27 -1 -161 -58 -468 -199z m765 -211 c157 -72 355 -165 440 -206 85 -41 200 -95 255 -120 55 -25 118 -53 140 -64 22 -10 126 -56 230 -102 105 -47 216 -97 248 -112 l57 -26 0 -1153 0 -1152 -502 -234 c-277 -129 -651 -303 -832 -388 l-330 -153 -140 65 c-78 35 -260 120 -406 188 -146 68 -457 214 -693 323 l-427 199 2 1154 3 1153 110 50 c61 28 130 59 155 69 67 26 338 149 470 213 63 30 167 77 230 105 63 27 180 81 260 120 198 96 423 200 435 201 5 1 138 -58 295 -130z"
       id="path3838" />
  </g>
  <g
     id="layer110"
     fill="#fce965"
     stroke="none">
    <path
       d="m 1130,2545 v -535 h 94 l 96.8125,0.9375 L 1356,2058 c 21,26 47,57 59,69 51,54 51,53 -20,53 h -65 v 125 125 h 174 175 l 60,75 61,75 h -83 c -58,0 -89,5 -103,15 -14,11 -51,14 -151,15 h -133 v 235 235 h -100 -100 z"
       id="path3841"/>
    <path
       d="M1760 2279 c0 -84 -10 -99 -65 -99 -25 0 -45 -4 -45 -10 0 -5 7 -10 17 -10 9 0 13 -3 10 -6 -10 -11 33 -43 49 -37 8 3 14 9 14 14 0 4 14 16 30 26 17 9 30 22 30 28 0 5 18 30 40 54 l39 44 -22 28 c-17 21 -31 28 -59 28 l-38 1 0 -61z"
       id="path3843" />
  </g>
  <g
     id="layer111"
     fill="#dbdbdb"
     stroke="none">
    <path
       d="M2385 4558 c-93 -44 -242 -114 -330 -155 -307 -146 -350 -165 -485 -223 -136 -59 -226 -100 -465 -215 -71 -34 -178 -83 -237 -110 -60 -26 -108 -51 -108 -55 0 -4 29 -26 64 -49 l63 -42 149 67 c180 80 268 120 579 261 132 60 256 116 275 124 19 8 95 44 170 80 163 80 488 229 499 229 9 0 631 -285 791 -363 142 -69 503 -233 821 -374 l57 -25 66 44 c36 24 66 46 66 49 0 3 -30 20 -67 36 -38 17 -135 61 -218 98 -82 37 -181 81 -220 98 -97 42 -234 106 -405 189 -151 73 -813 381 -865 403 -28 11 -41 7 -200 -67z"
       id="path3846" />
    <path
       d="m 647,3853 c -4,-3 -7,-591 -7,-1305 l 1.76777,-1307.7227 17.83534,-28.5581 C 671.0901,1185.4159 817,1135 1115,1000 c 231,-106 526,-241 655,-300 129,-59 350,-160 490,-225 140,-64 269,-119 286,-122 25,-4 67,11 190,67 88,40 240,110 339,155 99,45 308,141 465,213 157,72 422,194 590,270 256,118 314.7452,128.6482 333.7452,156.6482 L 4480,1263 v 1283 c 0,705 -3,1289 -6,1298 -5,14 -13,12 -55,-12 l -49,-27 V 2555 1305 L 3464,883 2559,461 1654,882 750,1303 v 1248 1247 l -42,31 c -44,33 -51,35 -61,24 z"
       id="path3848"/>
  </g>
</svg>
